<svg xmlns="http://www.w3.org/2000/svg" width="180" height="160" fill="none" viewBox="0 0 180 160"><rect width="180" height="160" fill="#009E66"/><path fill="#fff" d="M51.5455 47.1364V30.9091H128V47.1364H99.5V124H80.0455V47.1364H51.5455Z"/><path fill="#fff" d="M74.3182 54.1364V71.1364C71.5303 71.6212 69.0606 72.5151 66.9091 73.8182C64.7273 75.1212 62.8788 76.7424 61.3636 78.6818C59.8485 80.6212 58.7121 82.8333 57.9545 85.3182C57.1667 87.7727 56.7727 90.4242 56.7727 93.2727C56.7727 98.3333 58.0455 102.818 60.5909 106.727C63.1061 110.636 66.803 113.697 71.6818 115.909C76.5303 118.121 82.4545 119.227 89.4545 119.227C96.5758 119.227 102.576 118.121 107.455 115.909C112.303 113.667 115.97 110.606 118.455 106.727C120.909 102.818 122.136 98.3485 122.136 93.3182C122.136 90.5303 121.773 87.9242 121.045 85.5C120.288 83.0455 119.182 80.8485 117.727 78.9091C116.273 76.9394 114.485 75.2879 112.364 73.9545C110.242 72.5909 107.818 71.6515 105.091 71.1364L105.182 54.1364C109.606 54.7727 113.758 56.1515 117.636 58.2727C121.515 60.3636 124.939 63.1061 127.909 66.5C130.848 69.8939 133.152 73.8636 134.818 78.4091C136.455 82.9545 137.273 88 137.273 93.5455C137.273 101.727 135.379 109.03 131.591 115.455C127.803 121.879 122.333 126.939 115.182 130.636C108.03 134.333 99.4545 136.182 89.4545 136.182C79.4242 136.182 70.8485 134.318 63.7273 130.591C56.5758 126.864 51.1061 121.788 47.3182 115.364C43.5303 108.939 41.6364 101.667 41.6364 93.5455C41.6364 88.3636 42.3636 83.5455 43.8182 79.0909C45.2727 74.6364 47.4091 70.6667 50.2273 67.1818C53.0151 63.697 56.4394 60.8333 60.5 58.5909C64.5303 56.3182 69.1364 54.8333 74.3182 54.1364Z"/></svg>